<svg width="247" height="254" viewBox="0 0 247 254" fill="none" xmlns="http://www.w3.org/2000/svg">
<rect x="171.518" y="33" width="75" height="10" fill="white"/>
<path fill-rule="evenodd" clip-rule="evenodd" d="M203.518 46L203.518 75H213.518L213.518 46H203.518ZM203.518 30H213.518L213.518 0H203.518L203.518 30Z" fill="white"/>
<rect y="67.6379" width="155" height="188" transform="rotate(-7.95991 0 67.6379)" fill="white"/>
<path d="M29.3411 85.5931C30.2564 85.0697 31.0123 84.0821 31.8861 83.4642C34.5453 81.5838 37.4251 79.899 40.2648 78.3069C40.9871 77.9019 43.2498 76.3108 44.1823 77.085C44.6883 77.5051 45.1299 78.3063 45.471 78.8611C46.2575 80.1399 46.5992 81.9497 48.0857 82.679C49.0128 83.1339 50.4915 82.645 51.3879 82.3492C52.2026 82.0803 52.9598 81.6949 53.7072 81.2776C55.9208 80.0413 58.1103 78.7653 60.3371 77.5517C62.7851 76.2175 65.2364 74.8215 67.8903 73.9312C68.3421 73.7796 69.5967 73.188 70.0163 73.6779C71.2005 75.0605 70.9347 77.0155 71.8779 78.451C72.1164 78.814 72.4895 79.3573 72.9577 79.4137C74.2854 79.5736 75.7945 78.918 76.9546 78.3933C80.6803 76.7079 84.1145 74.51 87.5393 72.2974C88.8847 71.4282 90.4489 70.4468 92.0496 70.1281C92.8935 69.9601 93.7713 70.7626 94.4252 71.188C95.4785 71.8733 96.4062 72.7494 97.178 73.7411C97.9738 74.7636 99.072 76.4043 100.596 76.2818C101.714 76.192 102.8 75.6558 103.789 75.1687C105.689 74.2318 107.555 73.1954 109.386 72.1293C112.64 70.2349 115.648 68.1263 119.124 66.6354C119.979 66.269 120.87 68.7625 121.092 69.3349C121.398 70.1244 121.982 72.0274 123.138 72.0747C123.64 72.0953 124.195 71.8639 124.623 71.6399C126.244 70.792 127.784 69.7835 129.41 68.9338C131.73 67.7215 134.207 66.8383 136.483 65.5417C137.56 64.928 138.588 64.2511 139.698 63.7" stroke="black" stroke-width="3" stroke-linecap="round"/>
<path d="M32.449 104.183C33.3643 103.66 34.1203 102.672 34.9941 102.055C37.6532 100.174 40.533 98.4893 43.3727 96.8972C44.095 96.4922 46.3578 94.9011 47.2902 95.6754C47.7962 96.0954 48.2378 96.8966 48.579 97.4514C49.3654 98.7302 49.7071 100.54 51.1936 101.269C52.1207 101.724 53.5994 101.235 54.4958 100.94C55.3105 100.671 56.0677 100.285 56.8151 99.8679C59.0287 98.6316 61.2182 97.3557 63.445 96.142C65.893 94.8078 68.3443 93.4118 70.9982 92.5215C71.45 92.3699 72.7046 91.7783 73.1242 92.2682C74.3084 93.6509 74.0426 95.6058 74.9858 97.0414C75.2243 97.4043 75.5974 97.9477 76.0656 98.0041C77.3933 98.1639 78.9025 97.5084 80.0625 96.9836C83.7882 95.2982 87.2224 93.1003 90.6472 90.8877C91.9926 90.0185 93.5568 89.0372 95.1576 88.7184C96.0014 88.5504 96.8792 89.3529 97.5331 89.7783C98.5864 90.4637 99.5141 91.3397 100.286 92.3314C101.082 93.354 102.18 94.9946 103.704 94.8722C104.822 94.7823 105.908 94.2461 106.896 93.759C108.797 92.8221 110.663 91.7858 112.494 90.7197C115.748 88.8252 118.756 86.7166 122.232 85.2257C123.087 84.8593 123.978 87.3529 124.2 87.9253C124.506 88.7147 125.09 90.6177 126.246 90.6651C126.747 90.6856 127.303 90.4542 127.731 90.2303C129.352 89.3823 130.892 88.3739 132.518 87.5241C134.838 86.3118 137.315 85.4286 139.59 84.132C140.668 83.5183 141.695 82.8414 142.806 82.2904" stroke="black" stroke-width="3" stroke-linecap="round"/>
<path d="M35.2185 123.991C36.1339 123.467 36.8898 122.48 37.7636 121.862C40.4227 119.982 43.3026 118.297 46.1423 116.705C46.8646 116.3 49.1273 114.708 50.0598 115.483C50.5657 115.903 51.0073 116.704 51.3485 117.259C52.1349 118.538 52.4767 120.347 53.9631 121.077C54.8902 121.532 56.369 121.043 57.2653 120.747C58.08 120.478 58.8372 120.093 59.5846 119.675C61.7983 118.439 63.9877 117.163 66.2145 115.949C68.6625 114.615 71.1138 113.219 73.7677 112.329C74.2196 112.177 75.4741 111.586 75.8937 112.076C77.0779 113.458 76.8122 115.413 77.7554 116.849C77.9939 117.212 78.3669 117.755 78.8351 117.811C80.1629 117.971 81.672 117.316 82.8321 116.791C86.5578 115.106 89.9919 112.908 93.4167 110.695C94.7621 109.826 96.3263 108.845 97.9271 108.526C98.7709 108.358 99.6487 109.16 100.303 109.586C101.356 110.271 102.284 111.147 103.055 112.139C103.851 113.161 104.949 114.802 106.473 114.68C107.591 114.59 108.678 114.054 109.666 113.566C111.567 112.629 113.433 111.593 115.264 110.527C118.517 108.633 121.526 106.524 125.002 105.033C125.856 104.667 126.747 107.16 126.969 107.733C127.276 108.522 127.859 110.425 129.016 110.472C129.517 110.493 130.073 110.262 130.501 110.038C132.122 109.19 133.661 108.181 135.288 107.331C137.608 106.119 140.084 105.236 142.36 103.939C143.437 103.326 144.465 102.649 145.575 102.098" stroke="black" stroke-width="3" stroke-linecap="round"/>
<path d="M37.9881 143.798C38.9035 143.275 39.6594 142.287 40.5332 141.669C43.1924 139.789 46.0722 138.104 48.9119 136.512C49.6342 136.107 51.8969 134.516 52.8294 135.29C53.3354 135.71 53.777 136.511 54.1181 137.066C54.9046 138.345 55.2463 140.155 56.7328 140.884C57.6599 141.339 59.1386 140.85 60.035 140.554C60.8497 140.285 61.6069 139.9 62.3543 139.483C64.5679 138.246 66.7573 136.97 68.9842 135.757C71.4322 134.422 73.8835 133.026 76.5374 132.136C76.9892 131.985 78.2438 131.393 78.6633 131.883C79.8476 133.265 79.5818 135.22 80.525 136.656C80.7635 137.019 81.1366 137.562 81.6048 137.619C82.9325 137.779 84.4416 137.123 85.6017 136.598C89.3274 134.913 92.7616 132.715 96.1864 130.502C97.5318 129.633 99.096 128.652 100.697 128.333C101.541 128.165 102.418 128.968 103.072 129.393C104.126 130.078 105.053 130.954 105.825 131.946C106.621 132.969 107.719 134.609 109.243 134.487C110.361 134.397 111.447 133.861 112.436 133.374C114.337 132.437 116.202 131.4 118.033 130.334C121.287 128.44 124.296 126.331 127.772 124.84C128.626 124.474 129.517 126.967 129.739 127.54C130.045 128.329 130.629 130.232 131.785 130.28C132.287 130.3 132.842 130.069 133.27 129.845C134.891 128.997 136.431 127.988 138.057 127.139C140.378 125.926 142.854 125.043 145.13 123.747C146.207 123.133 147.235 122.456 148.345 121.905" stroke="black" stroke-width="3" stroke-linecap="round"/>
<path d="M46.1584 202.23C47.0738 201.706 47.8297 200.719 48.7035 200.101C51.3627 198.22 54.2425 196.535 57.0822 194.943C57.8045 194.538 60.0672 192.947 60.9997 193.721C61.5056 194.142 61.9473 194.943 62.2884 195.498C63.0748 196.776 63.4166 198.586 64.9031 199.316C65.8302 199.77 67.3089 199.281 68.2053 198.986C69.02 198.717 69.7772 198.331 70.5246 197.914C72.7382 196.678 74.9276 195.402 77.1545 194.188C79.6025 192.854 82.0538 191.458 84.7077 190.568C85.1595 190.416 86.4141 189.824 86.8336 190.314C88.0178 191.697 87.7521 193.652 88.6953 195.088C88.9338 195.45 89.3069 195.994 89.7751 196.05C91.1028 196.21 92.6119 195.555 93.772 195.03C97.4977 193.344 100.932 191.146 104.357 188.934C105.702 188.065 107.266 187.083 108.867 186.765C109.711 186.597 110.589 187.399 111.243 187.824C112.296 188.51 113.224 189.386 113.995 190.378C114.791 191.4 115.889 193.041 117.413 192.918C118.531 192.828 119.618 192.292 120.606 191.805C122.507 190.868 124.372 189.832 126.204 188.766C129.457 186.871 132.466 184.763 135.942 183.272C136.796 182.905 137.687 185.399 137.909 185.971C138.215 186.761 138.799 188.664 139.956 188.711C140.457 188.732 141.013 188.5 141.441 188.276C143.062 187.428 144.601 186.42 146.228 185.57C148.548 184.358 151.024 183.475 153.3 182.178C154.377 181.564 155.405 180.888 156.515 180.336" stroke="black" stroke-width="3" stroke-linecap="round"/>
<path d="M40.8962 164.596C41.8116 164.072 42.5675 163.085 43.4413 162.467C46.1005 160.587 48.9803 158.902 51.82 157.31C52.5423 156.905 54.805 155.313 55.7375 156.088C56.2434 156.508 56.6851 157.309 57.0262 157.864C57.8126 159.143 58.1544 160.952 59.6409 161.682C60.568 162.137 62.0467 161.648 62.9431 161.352C63.7578 161.083 64.515 160.698 65.2624 160.28C67.476 159.044 69.6654 157.768 71.8923 156.554C74.3403 155.22 76.7915 153.824 79.4455 152.934C79.8973 152.782 81.1519 152.191 81.5714 152.681C82.7556 154.063 82.4899 156.018 83.4331 157.454C83.6716 157.817 84.0446 158.36 84.5129 158.416C85.8406 158.576 87.3497 157.921 88.5098 157.396C92.2355 155.711 95.6696 153.513 99.0945 151.3C100.44 150.431 102.004 149.45 103.605 149.131C104.449 148.963 105.326 149.765 105.98 150.191C107.034 150.876 107.961 151.752 108.733 152.744C109.529 153.766 110.627 155.407 112.151 155.285C113.269 155.195 114.355 154.658 115.344 154.171C117.245 153.234 119.11 152.198 120.941 151.132C124.195 149.238 127.204 147.129 130.68 145.638C131.534 145.272 132.425 147.765 132.647 148.338C132.953 149.127 133.537 151.03 134.693 151.077C135.195 151.098 135.75 150.867 136.178 150.643C137.8 149.795 139.339 148.786 140.965 147.936C143.286 146.724 145.762 145.841 148.038 144.544C149.115 143.931 150.143 143.254 151.253 142.703" stroke="black" stroke-width="3" stroke-linecap="round"/>
<path d="M49.0665 223.027C49.9819 222.504 50.7378 221.516 51.6116 220.898C54.2708 219.018 57.1506 217.333 59.9903 215.741C60.7126 215.336 62.9753 213.745 63.9078 214.519C64.4137 214.939 64.8554 215.741 65.1965 216.295C65.9829 217.574 66.3247 219.384 67.8112 220.113C68.7382 220.568 70.217 220.079 71.1134 219.783C71.9281 219.515 72.6853 219.129 73.4326 218.712C75.6463 217.476 77.8357 216.2 80.0626 214.986C82.5106 213.652 84.9618 212.256 87.6157 211.365C88.0676 211.214 89.3221 210.622 89.7417 211.112C90.9259 212.495 90.6602 214.45 91.6034 215.885C91.8419 216.248 92.2149 216.792 92.6832 216.848C94.0109 217.008 95.52 216.352 96.6801 215.827C100.406 214.142 103.84 211.944 107.265 209.732C108.61 208.862 110.174 207.881 111.775 207.562C112.619 207.394 113.497 208.197 114.151 208.622C115.204 209.308 116.132 210.184 116.903 211.175C117.699 212.198 118.797 213.838 120.321 213.716C121.439 213.626 122.526 213.09 123.514 212.603C125.415 211.666 127.281 210.63 129.112 209.564C132.365 207.669 135.374 205.56 138.85 204.07C139.704 203.703 140.595 206.197 140.817 206.769C141.124 207.559 141.707 209.462 142.864 209.509C143.365 209.529 143.921 209.298 144.349 209.074C145.97 208.226 147.509 207.218 149.136 206.368C151.456 205.156 153.932 204.272 156.208 202.976C157.285 202.362 158.313 201.685 159.423 201.134" stroke="black" stroke-width="3" stroke-linecap="round"/>
<path d="M43.5273 183.413C44.4427 182.889 45.1986 181.902 46.0724 181.284C48.7316 179.403 51.6114 177.719 54.4511 176.126C55.1734 175.721 57.4361 174.13 58.3686 174.905C58.8745 175.325 59.3162 176.126 59.6573 176.681C60.4437 177.959 60.7855 179.769 62.272 180.499C63.1991 180.953 64.6778 180.465 65.5742 180.169C66.3889 179.9 67.1461 179.515 67.8935 179.097C70.1071 177.861 72.2965 176.585 74.5234 175.371C76.9714 174.037 79.4227 172.641 82.0766 171.751C82.5284 171.599 83.783 171.008 84.2025 171.497C85.3867 172.88 85.121 174.835 86.0642 176.271C86.3027 176.634 86.6757 177.177 87.144 177.233C88.4717 177.393 89.9808 176.738 91.1409 176.213C94.8666 174.527 98.3007 172.33 101.726 170.117C103.071 169.248 104.635 168.266 106.236 167.948C107.08 167.78 107.958 168.582 108.611 169.008C109.665 169.693 110.593 170.569 111.364 171.561C112.16 172.583 113.258 174.224 114.782 174.101C115.9 174.012 116.986 173.475 117.975 172.988C119.876 172.051 121.741 171.015 123.572 169.949C126.826 168.054 129.835 165.946 133.311 164.455C134.165 164.089 135.056 166.582 135.278 167.155C135.584 167.944 136.168 169.847 137.324 169.894C137.826 169.915 138.382 169.683 138.81 169.46C140.431 168.612 141.97 167.603 143.597 166.753C145.917 165.541 148.393 164.658 150.669 163.361C151.746 162.748 152.774 162.071 153.884 161.52" stroke="black" stroke-width="3" stroke-linecap="round"/>
<path d="M11.7475 82.3822C10.8127 82.513 9.95345 83.724 9.9707 84.6089C10.0103 86.6384 11.5052 87.5611 13.3832 87.8977C14.2081 88.0455 16.8437 88.2824 17.2222 87.2144C17.5565 86.2709 17.6643 85.4708 17.4407 84.4802C17.2623 83.6902 16.5464 82.8966 15.8519 82.4971C14.7547 81.8658 13.707 81.9764 12.5055 82.1444C11.8486 82.2362 11.5064 82.2112 11.0622 82.6686C10.7828 82.9562 10.9199 83.8359 11.1562 84.1794C11.9106 85.276 13.7857 85.756 14.164 84.1544C14.2494 83.7929 14.2118 82.9311 13.7822 82.7864C13.0129 82.5275 13.154 84.1646 13.2619 84.515C13.4544 85.1396 14.2441 85.729 14.9155 85.7565C15.6209 85.7854 14.8678 84.7373 14.7347 84.463C14.2067 83.375 12.9689 83.1837 12.026 83.9552C11.4907 84.3932 11.3228 85.1404 12.1454 85.228" stroke="black" stroke-width="3" stroke-linecap="round"/>
<path d="M14.8554 100.973C13.9206 101.103 13.0614 102.314 13.0786 103.199C13.1182 105.229 14.6131 106.151 16.4912 106.488C17.316 106.636 19.9516 106.873 20.3301 105.805C20.6645 104.861 20.7722 104.061 20.5486 103.071C20.3702 102.28 19.6543 101.487 18.9598 101.087C17.8627 100.456 16.8149 100.567 15.6134 100.735C14.9565 100.827 14.6143 100.802 14.1701 101.259C13.8907 101.547 14.0278 102.426 14.2641 102.77C15.0185 103.866 16.8936 104.346 17.2719 102.745C17.3573 102.383 17.3198 101.521 16.8901 101.377C16.1208 101.118 16.2619 102.755 16.3699 103.105C16.5623 103.73 17.352 104.319 18.0234 104.347C18.7288 104.376 17.9757 103.328 17.8426 103.053C17.3146 101.965 16.0768 101.774 15.1339 102.546C14.5986 102.983 14.4307 103.731 15.2533 103.818" stroke="black" stroke-width="3" stroke-linecap="round"/>
<path d="M17.6249 120.78C16.6901 120.911 15.8309 122.122 15.8481 123.007C15.8877 125.036 17.3826 125.959 19.2607 126.295C20.0856 126.443 22.7211 126.68 23.0996 125.612C23.434 124.669 23.5417 123.868 23.3181 122.878C23.1397 122.088 22.4238 121.294 21.7293 120.895C20.6322 120.264 19.5845 120.374 18.3829 120.542C17.726 120.634 17.3838 120.609 16.9396 121.066C16.6602 121.354 16.7974 122.234 17.0336 122.577C17.788 123.674 19.6631 124.154 20.0414 122.552C20.1268 122.191 20.0893 121.329 19.6597 121.184C18.8904 120.925 19.0314 122.562 19.1394 122.913C19.3318 123.537 20.1216 124.127 20.793 124.154C21.4984 124.183 20.7452 123.135 20.6121 122.861C20.0841 121.773 18.8464 121.581 17.9035 122.353C17.3682 122.791 17.2002 123.538 18.0228 123.626" stroke="black" stroke-width="3" stroke-linecap="round"/>
<path d="M20.3946 140.587C19.4598 140.718 18.6005 141.929 18.6178 142.814C18.6574 144.843 20.1523 145.766 22.0303 146.103C22.8552 146.25 25.4908 146.487 25.8693 145.419C26.2036 144.476 26.3114 143.676 26.0877 142.685C25.9093 141.895 25.1934 141.102 24.499 140.702C23.4018 140.071 22.3541 140.181 21.1526 140.349C20.4956 140.441 20.1535 140.416 19.7093 140.874C19.4299 141.161 19.567 142.041 19.8033 142.384C20.5577 143.481 22.4328 143.961 22.8111 142.359C22.8965 141.998 22.8589 141.136 22.4293 140.991C21.66 140.732 21.8011 142.37 21.909 142.72C22.1014 143.345 22.8912 143.934 23.5626 143.961C24.268 143.99 23.5149 142.942 23.3818 142.668C22.8537 141.58 21.616 141.389 20.6731 142.16C20.1378 142.598 19.9699 143.345 20.7925 143.433" stroke="black" stroke-width="3" stroke-linecap="round"/>
<path d="M28.5649 199.019C27.6301 199.149 26.7708 200.36 26.7881 201.245C26.8277 203.275 28.3226 204.198 30.2006 204.534C31.0255 204.682 33.661 204.919 34.0395 203.851C34.3739 202.907 34.4817 202.107 34.258 201.117C34.0796 200.327 33.3637 199.533 32.6692 199.134C31.5721 198.502 30.5244 198.613 29.3229 198.781C28.6659 198.873 28.3237 198.848 27.8795 199.305C27.6002 199.593 27.7373 200.472 27.9736 200.816C28.7279 201.912 30.6031 202.392 30.9814 200.791C31.0668 200.429 31.0292 199.568 30.5996 199.423C29.8303 199.164 29.9714 200.801 30.0793 201.152C30.2717 201.776 31.0615 202.365 31.7329 202.393C32.4383 202.422 31.6852 201.374 31.552 201.099C31.024 200.011 29.7863 199.82 28.8434 200.592C28.3081 201.03 28.1402 201.777 28.9628 201.864" stroke="black" stroke-width="3" stroke-linecap="round"/>
<path d="M23.3027 161.385C22.3678 161.516 21.5086 162.727 21.5259 163.612C21.5655 165.641 23.0604 166.564 24.9384 166.9C25.7633 167.048 28.3988 167.285 28.7773 166.217C29.1117 165.274 29.2195 164.473 28.9958 163.483C28.8174 162.693 28.1015 161.899 27.407 161.5C26.3099 160.868 25.2622 160.979 24.0607 161.147C23.4037 161.239 23.0615 161.214 22.6173 161.671C22.338 161.959 22.4751 162.839 22.7114 163.182C23.4657 164.279 25.3409 164.759 25.7192 163.157C25.8046 162.796 25.767 161.934 25.3374 161.789C24.5681 161.53 24.7092 163.167 24.8171 163.518C25.0095 164.142 25.7993 164.732 26.4707 164.759C27.1761 164.788 26.423 163.74 26.2898 163.466C25.7618 162.378 24.5241 162.186 23.5812 162.958C23.0459 163.396 22.878 164.143 23.7006 164.231" stroke="black" stroke-width="3" stroke-linecap="round"/>
<path d="M31.4729 219.816C30.5381 219.947 29.6789 221.158 29.6962 222.043C29.7357 224.073 31.2307 224.995 33.1087 225.332C33.9336 225.48 36.5691 225.717 36.9476 224.649C37.282 223.705 37.3898 222.905 37.1661 221.914C36.9877 221.124 36.2718 220.331 35.5773 219.931C34.4802 219.3 33.4325 219.411 32.231 219.579C31.574 219.67 31.2318 219.645 30.7876 220.103C30.5083 220.39 30.6454 221.27 30.8817 221.614C31.636 222.71 33.5112 223.19 33.8895 221.589C33.9749 221.227 33.9373 220.365 33.5077 220.221C32.7384 219.962 32.8795 221.599 32.9874 221.949C33.1798 222.574 33.9696 223.163 34.641 223.191C35.3464 223.22 34.5933 222.172 34.4601 221.897C33.9321 220.809 32.6944 220.618 31.7515 221.389C31.2162 221.827 31.0482 222.575 31.8709 222.662" stroke="black" stroke-width="3" stroke-linecap="round"/>
<path d="M25.9338 180.202C24.999 180.333 24.1397 181.544 24.157 182.428C24.1966 184.458 25.6915 185.381 27.5695 185.717C28.3944 185.865 31.0299 186.102 31.4084 185.034C31.7428 184.09 31.8506 183.29 31.6269 182.3C31.4485 181.51 30.7326 180.716 30.0381 180.317C28.941 179.685 27.8933 179.796 26.6918 179.964C26.0348 180.056 25.6926 180.031 25.2484 180.488C24.9691 180.776 25.1062 181.655 25.3425 181.999C26.0968 183.096 27.972 183.576 28.3503 181.974C28.4357 181.612 28.3981 180.751 27.9685 180.606C27.1992 180.347 27.3403 181.984 27.4482 182.335C27.6406 182.959 28.4304 183.549 29.1018 183.576C29.8072 183.605 29.0541 182.557 28.9209 182.283C28.3929 181.195 27.1552 181.003 26.2123 181.775C25.677 182.213 25.5091 182.96 26.3317 183.048" stroke="black" stroke-width="3" stroke-linecap="round"/>
</svg>
